<?xml version="1.0" encoding="utf-8"?>
<!-- Generator: Adobe Illustrator 19.0.0, SVG Export Plug-In . SVG Version: 6.00 Build 0)  -->
<svg version="1.1" id="Layer_1" xmlns="http://www.w3.org/2000/svg" xmlns:xlink="http://www.w3.org/1999/xlink" x="0px" y="0px"
	 viewBox="0 0 244.5 107.5" style="enable-background:new 0 0 244.5 107.5;" xml:space="preserve">
<style type="text/css">
	.st0{fill:#FFFFFF;}
</style>
<polygon class="st0" points="107.5,41.3 107.5,48.8 107.4,48.8 103.4,41.3 99,41.3 99,55.3 103,55.3 103,47.7 103.1,47.7 
	107.4,55.3 111.6,55.3 111.6,41.3 "/>
<g>
	<path class="st0" d="M10.7,10.7C10.4,12,9.8,13,8.4,13c-2,0-2.7-2-2.7-3.8c0-1.9,0.6-3.8,2.7-3.8c1.8,0,2.2,1.5,2.3,2.1h4.2
		c-0.4-3.5-2.5-5.5-6.3-5.5c-4.3,0-7.1,2.9-7.1,7.3c0,4.1,2.6,7.3,7.1,7.3c4.1,0,6.4-3,6.4-5.8H10.7z"/>
</g>
<polygon class="st0" points="39.8,12.6 39.8,2.2 35.5,2.2 35.5,16.1 46,16.1 46,12.6 "/>
<rect x="69.4" y="2.2" class="st0" width="4.3" height="14"/>
<polygon class="st0" points="99.4,2.2 99.4,16.1 103.8,16.1 103.8,10.8 109.3,10.8 109.3,7.5 103.8,7.5 103.8,5.7 110.3,5.7 
	110.3,2.2 "/>
<polygon class="st0" points="132,2.2 132,16.1 136.3,16.1 136.3,10.8 141.9,10.8 141.9,7.5 136.3,7.5 136.3,5.7 142.8,5.7 
	142.8,2.2 "/>
<g>
	<path class="st0" d="M167,9.2c0-3.1,1.7-3.8,2.8-3.8c1.1,0,2.8,0.7,2.8,3.8c0,3.1-1.7,3.8-2.8,3.8C168.7,13,167,12.3,167,9.2
		 M162.7,9.2c0,4.3,2.8,7.3,7.1,7.3c4.2,0,7.1-3.1,7.1-7.3c0-4.3-2.8-7.3-7.1-7.3C165.5,1.8,162.7,4.9,162.7,9.2"/>
	<path class="st0" d="M200.4,5.5h2c1.6,0,2.1,0.5,2.1,1.4c0,1.3-1.1,1.4-1.9,1.4h-2.3V5.5z M196.1,16.1h4.3v-4.9h2.3
		c1.7,0,1.8,1.4,1.9,2.7c0.1,0.7,0.1,1.4,0.4,2.2h4.3c-0.4-0.6-0.4-2.3-0.5-3c-0.2-1.7-0.9-3-2.1-3.5c1.4-0.5,2.1-2.1,2.1-3.5
		c0-2.6-2.1-4-4.6-4h-8.2V16.1z"/>
	<path class="st0" d="M232.9,5.7h1.4c3.1,0,3.4,2.4,3.4,3.3c0,1.3-0.4,3.5-3.1,3.5h-1.7V5.7z M228.6,16.1h6.2c4.9,0,7.1-2.7,7.1-7
		c0-3.5-1.6-7-6.3-7h-7.1V16.1z"/>
	<path class="st0" d="M10.6,46.5c-0.1-0.5-0.5-2.1-2.3-2.1c-2,0-2.7,2-2.7,3.8c0,1.9,0.6,3.8,2.7,3.8c1.5,0,2-1,2.3-2.3h4.2
		c0,2.8-2.3,5.8-6.4,5.8c-4.5,0-7.1-3.2-7.1-7.3c0-4.4,2.8-7.3,7.1-7.3c3.8,0,6,2,6.3,5.5H10.6z"/>
</g>
<polygon class="st0" points="42.5,41.3 42.5,46.2 38.5,46.2 38.5,41.3 34.2,41.3 34.2,55.3 38.5,55.3 38.5,49.8 42.5,49.8 
	42.5,55.3 46.8,55.3 46.8,41.3 "/>
<path class="st0" d="M70.5,41.3l-5.1,14h4.3l0.6-2h4.4l0.6,2h4.5l-5.1-14H70.5z M72.5,46L72.5,46l1.3,4.3h-2.6L72.5,46z"/>
<g>
	<path class="st0" d="M140.1,46.5c-0.1-0.5-0.5-2.1-2.3-2.1c-2,0-2.7,2-2.7,3.8c0,1.9,0.6,3.8,2.7,3.8c1.4,0,2-1,2.3-2.3h4.2
		c0,2.8-2.3,5.8-6.4,5.8c-4.5,0-7.1-3.2-7.1-7.3c0-4.4,2.8-7.3,7.1-7.3c3.8,0,6,2,6.3,5.5H140.1z"/>
</g>
<polygon class="st0" points="163.7,41.3 163.7,55.3 175.5,55.3 175.5,51.7 168,51.7 168,50 174.6,50 174.6,46.7 168,46.7 168,44.9 
	175.3,44.9 175.3,41.3 "/>
<path class="st0" d="M10.2,99.1L7.1,91L4,99.1H10.2z M8.1,89.5l6.2,15.8h-1.6l-1.9-4.9H3.5l-1.9,4.9H0l6.4-15.8H8.1z"/>
<rect x="15.9" y="89.5" class="st0" width="1.4" height="15.8"/>
<g>
	<path class="st0" d="M28.4,105.3v-2.1h0c-0.4,0.8-0.9,1.4-1.6,1.8s-1.5,0.6-2.3,0.6c-0.7,0-1.3-0.1-1.9-0.3
		c-0.5-0.2-0.9-0.5-1.2-0.9c-0.3-0.4-0.6-0.8-0.7-1.4c-0.1-0.5-0.2-1.1-0.2-1.8v-7.4h1.4v7.5c0,1,0.3,1.8,0.7,2.4
		c0.5,0.5,1.2,0.8,2.3,0.8c0.6,0,1.1-0.1,1.6-0.4s0.8-0.6,1.1-1c0.3-0.4,0.5-0.9,0.6-1.5c0.1-0.6,0.2-1.1,0.2-1.7v-6h1.4v11.5H28.4z
		"/>
	<path class="st0" d="M34,93.9v1.9h0.1c0.4-0.7,0.9-1.3,1.5-1.7c0.6-0.4,1.4-0.6,2.3-0.6c0.8,0,1.4,0.2,2.1,0.6
		c0.6,0.4,1,0.9,1.2,1.7c0.3-0.8,0.8-1.3,1.5-1.7c0.7-0.4,1.4-0.6,2.1-0.6c2.5,0,3.8,1.3,3.8,4v7.8h-1.4v-7.7c0-0.9-0.2-1.7-0.6-2.2
		c-0.4-0.5-1.1-0.7-2.1-0.7c-0.6,0-1.1,0.1-1.5,0.3c-0.4,0.2-0.7,0.5-1,0.9c-0.2,0.4-0.4,0.8-0.5,1.3c-0.1,0.5-0.1,1-0.1,1.5v6.5H40
		v-7.8c0-0.4,0-0.8-0.1-1.1c-0.1-0.3-0.2-0.7-0.4-0.9c-0.2-0.3-0.4-0.5-0.7-0.6c-0.3-0.1-0.7-0.2-1.1-0.2c-0.6,0-1.1,0.1-1.5,0.3
		c-0.4,0.2-0.8,0.5-1.1,0.9c-0.3,0.4-0.5,0.8-0.6,1.3c-0.1,0.5-0.2,1.1-0.2,1.7v6.4h-1.4V93.9H34z"/>
	<path class="st0" d="M53,93.9v2h0c0.3-0.7,0.7-1.3,1.4-1.7c0.7-0.4,1.4-0.6,2.2-0.6c0.8,0,1.5,0.1,2,0.3c0.5,0.2,1,0.5,1.3,0.9
		c0.3,0.4,0.6,0.8,0.7,1.4c0.1,0.5,0.2,1.2,0.2,1.8v7.4h-1.4v-7.1c0-0.5,0-0.9-0.1-1.4c-0.1-0.4-0.2-0.8-0.5-1.1
		c-0.2-0.3-0.5-0.6-0.9-0.7c-0.4-0.2-0.8-0.3-1.4-0.3c-0.6,0-1.1,0.1-1.5,0.3c-0.4,0.2-0.8,0.5-1.1,0.8c-0.3,0.3-0.5,0.8-0.7,1.2
		c-0.2,0.5-0.3,1-0.3,1.6v6.7h-1.4V93.9H53z"/>
</g>
<path class="st0" d="M65.4,105.3H64V93.9h1.4V105.3z M65.4,91.7H64v-2.2h1.4V91.7z"/>
</svg>
