<?xml version="1.0" encoding="utf-8"?>
<!-- Generator: Adobe Illustrator 19.0.0, SVG Export Plug-In . SVG Version: 6.00 Build 0)  -->
<svg version="1.1" id="Layer_1" xmlns="http://www.w3.org/2000/svg" xmlns:xlink="http://www.w3.org/1999/xlink" x="0px" y="0px"
	 viewBox="-175 367.4 244.5 43.9" style="enable-background:new -175 367.4 244.5 43.9;" xml:space="preserve">
<g>
	<path d="M-150,397.6l-4.1-15.3l-4.2,15.3c-0.3,1.2-0.6,2-0.8,2.5c-0.2,0.5-0.5,1-1,1.4s-1.1,0.6-1.9,0.6c-0.6,0-1.2-0.1-1.6-0.4
		c-0.4-0.2-0.7-0.6-1-1s-0.5-1-0.6-1.5c-0.2-0.6-0.3-1.1-0.4-1.7l-4.2-17.2c-0.3-1-0.4-1.8-0.4-2.3c0-0.7,0.2-1.2,0.7-1.7
		c0.5-0.5,1-0.7,1.7-0.7c0.9,0,1.6,0.3,1.9,0.9s0.6,1.5,0.9,2.6l3.3,14.9l3.7-13.9c0.3-1.1,0.5-1.9,0.7-2.4s0.6-1,1.1-1.4
		c0.5-0.4,1.2-0.6,2-0.6c0.9,0,1.5,0.2,2,0.6c0.5,0.4,0.8,0.9,1,1.4c0.2,0.5,0.4,1.3,0.7,2.5l3.8,13.9l3.3-14.9
		c0.2-0.8,0.3-1.4,0.5-1.8c0.1-0.4,0.4-0.8,0.7-1.2c0.4-0.3,0.9-0.5,1.5-0.5s1.2,0.2,1.7,0.7c0.5,0.4,0.7,1,0.7,1.7
		c0,0.5-0.1,1.2-0.4,2.3l-4.2,17.2c-0.3,1.2-0.5,2-0.7,2.5c-0.2,0.5-0.5,1-1,1.4c-0.5,0.4-1.1,0.6-1.9,0.6c-0.8,0-1.4-0.2-1.9-0.6
		c-0.5-0.4-0.8-0.8-1-1.3C-149.5,399.7-149.7,398.8-150,397.6z"/>
	<path d="M-134.7,391.1v-12.3c0-1,0.2-1.8,0.7-2.3s1.1-0.8,1.9-0.8c0.8,0,1.4,0.3,1.9,0.8c0.5,0.5,0.7,1.3,0.7,2.3v12.5
		c0,1.4,0.2,2.6,0.5,3.6c0.3,1,0.9,1.7,1.7,2.2s1.9,0.8,3.4,0.8c2,0,3.4-0.5,4.3-1.6c0.8-1.1,1.3-2.7,1.3-4.9v-12.6
		c0-1.1,0.2-1.8,0.7-2.4s1.1-0.8,1.9-0.8c0.8,0,1.4,0.3,1.9,0.8c0.5,0.5,0.7,1.3,0.7,2.4v12.3c0,2-0.2,3.7-0.6,5
		c-0.4,1.3-1.1,2.5-2.2,3.5c-0.9,0.9-2,1.5-3.2,1.9c-1.2,0.4-2.7,0.6-4.3,0.6c-2,0-3.6-0.2-5.1-0.6s-2.6-1.1-3.5-2
		c-0.9-0.9-1.5-2-2-3.4S-134.7,393-134.7,391.1z"/>
	<path d="M-100.9,378.8l9.9,15v-15.2c0-1,0.2-1.7,0.6-2.2c0.4-0.5,1-0.7,1.7-0.7c0.7,0,1.3,0.2,1.8,0.7c0.4,0.5,0.6,1.2,0.6,2.2v20
		c0,2.2-0.9,3.4-2.8,3.4c-0.5,0-0.9-0.1-1.3-0.2c-0.4-0.1-0.7-0.3-1-0.6c-0.3-0.3-0.6-0.6-0.9-1c-0.3-0.4-0.6-0.8-0.8-1.2l-9.7-14.8
		v14.9c0,1-0.2,1.7-0.7,2.2c-0.5,0.5-1,0.7-1.7,0.7c-0.7,0-1.3-0.3-1.8-0.8c-0.4-0.5-0.7-1.2-0.7-2.2v-19.7c0-0.8,0.1-1.5,0.3-2
		c0.2-0.5,0.6-0.9,1.1-1.3c0.5-0.3,1.1-0.5,1.7-0.5c0.5,0,0.9,0.1,1.2,0.2c0.3,0.2,0.6,0.4,0.9,0.6c0.2,0.3,0.5,0.6,0.8,1
		C-101.5,378-101.2,378.4-100.9,378.8z"/>
	<path d="M-77.4,376.2h6.7c1.7,0,3.3,0.2,4.5,0.5s2.4,0.9,3.4,1.8c2.7,2.3,4,5.7,4,10.4c0,1.5-0.1,2.9-0.4,4.2
		c-0.3,1.3-0.7,2.4-1.2,3.4c-0.6,1-1.3,1.9-2.1,2.7c-0.7,0.6-1.4,1.1-2.2,1.5c-0.8,0.4-1.7,0.6-2.6,0.8c-0.9,0.2-2,0.2-3.2,0.2h-6.7
		c-0.9,0-1.6-0.1-2.1-0.4c-0.5-0.3-0.8-0.7-0.9-1.2s-0.2-1.2-0.2-2v-18.7c0-1.1,0.2-1.9,0.7-2.4C-79.3,376.4-78.5,376.2-77.4,376.2z
		 M-75.4,380.3v17.3h3.9c0.9,0,1.5,0,2-0.1c0.5,0,1-0.2,1.5-0.3c0.5-0.2,1-0.4,1.4-0.8c1.7-1.5,2.6-4,2.6-7.5c0-2.5-0.4-4.4-1.1-5.6
		s-1.7-2-2.8-2.4s-2.5-0.5-4-0.5H-75.4z"/>
	<path d="M-37.5,380.1h-11.6v6.3h10.7c0.8,0,1.4,0.2,1.8,0.5s0.6,0.8,0.6,1.4c0,0.6-0.2,1.1-0.6,1.4c-0.4,0.4-1,0.5-1.8,0.5h-10.7
		v7.2h12c0.8,0,1.4,0.2,1.8,0.6c0.4,0.4,0.6,0.9,0.6,1.5c0,0.6-0.2,1.1-0.6,1.5c-0.4,0.4-1,0.6-1.8,0.6h-14c-1.1,0-1.9-0.2-2.4-0.7
		c-0.5-0.5-0.7-1.3-0.7-2.4v-19.2c0-0.7,0.1-1.3,0.3-1.8c0.2-0.5,0.6-0.8,1-1c0.5-0.2,1.1-0.3,1.8-0.3h13.6c0.8,0,1.4,0.2,1.8,0.5
		c0.4,0.4,0.6,0.8,0.6,1.4c0,0.6-0.2,1.1-0.6,1.5C-36,380-36.7,380.1-37.5,380.1z"/>
	<path d="M-23.6,390.8h-1.8v8.2c0,1.1-0.2,1.9-0.7,2.4s-1.1,0.8-1.9,0.8c-0.8,0-1.5-0.3-1.9-0.8c-0.5-0.5-0.7-1.3-0.7-2.3v-19.6
		c0-1.1,0.2-1.9,0.7-2.4s1.3-0.7,2.4-0.7h8.4c1.2,0,2.1,0,3,0.1c0.8,0.1,1.6,0.3,2.2,0.6c0.8,0.3,1.5,0.8,2.1,1.4
		c0.6,0.6,1.1,1.4,1.4,2.2c0.3,0.8,0.5,1.7,0.5,2.6c0,1.9-0.5,3.4-1.6,4.6c-1.1,1.1-2.7,1.9-4.9,2.4c0.9,0.5,1.8,1.2,2.6,2.2
		s1.6,2,2.2,3c0.7,1.1,1.2,2,1.5,2.9s0.5,1.5,0.5,1.8c0,0.3-0.1,0.7-0.3,1c-0.2,0.3-0.5,0.6-0.9,0.8c-0.4,0.2-0.8,0.3-1.3,0.3
		c-0.6,0-1.1-0.1-1.5-0.4c-0.4-0.3-0.7-0.6-1-1c-0.3-0.4-0.7-1-1.2-1.8l-2.1-3.4c-0.7-1.3-1.4-2.2-2-2.9s-1.2-1.1-1.8-1.4
		C-21.9,390.9-22.7,390.8-23.6,390.8z M-20.6,380h-4.8v7h4.6c1.2,0,2.3-0.1,3.1-0.3s1.5-0.6,1.9-1.1c0.4-0.5,0.7-1.2,0.7-2.1
		c0-0.7-0.2-1.3-0.5-1.9c-0.4-0.5-0.9-0.9-1.5-1.2C-17.7,380.2-18.9,380-20.6,380z"/>
	<path d="M6,401.6h-7.8c-1.1,0-1.9-0.3-2.4-0.8c-0.5-0.5-0.7-1.3-0.7-2.4v-19.2c0-1.1,0.2-1.9,0.7-2.4c0.5-0.5,1.3-0.7,2.4-0.7h8.3
		c1.2,0,2.3,0.1,3.2,0.2c0.9,0.2,1.7,0.4,2.4,0.9c0.6,0.4,1.1,0.8,1.6,1.4c0.5,0.6,0.8,1.2,1.1,1.8c0.2,0.7,0.4,1.4,0.4,2.1
		c0,2.5-1.3,4.4-3.8,5.6c3.3,1.1,5,3.1,5,6.2c0,1.4-0.4,2.7-1.1,3.9c-0.7,1.1-1.7,2-3,2.5c-0.8,0.3-1.7,0.6-2.7,0.7
		C8.5,401.6,7.3,401.6,6,401.6z M0.2,380v6.6h4.7c1.3,0,2.3-0.1,3-0.4c0.7-0.2,1.2-0.7,1.6-1.4c0.3-0.5,0.4-1,0.4-1.6
		c0-1.3-0.5-2.1-1.4-2.6S6.3,380,4.4,380H0.2z M5.6,390.3H0.2v7.4h5.5c3.5,0,5.2-1.3,5.2-3.8c0-1.3-0.5-2.2-1.4-2.8
		C8.7,390.6,7.4,390.3,5.6,390.3z"/>
	<path d="M35.6,398.8l-1.2-3.2H24.1l-1.2,3.3c-0.5,1.3-0.9,2.1-1.2,2.6c-0.3,0.4-0.9,0.7-1.7,0.7c-0.6,0-1.2-0.2-1.7-0.7
		c-0.5-0.5-0.7-1-0.7-1.6c0-0.3,0.1-0.7,0.2-1.1c0.1-0.4,0.3-0.9,0.6-1.5l6.5-16.5c0.2-0.5,0.4-1,0.7-1.7c0.3-0.7,0.5-1.2,0.8-1.7
		c0.3-0.4,0.7-0.8,1.2-1.1c0.5-0.3,1.1-0.4,1.8-0.4c0.7,0,1.3,0.1,1.8,0.4c0.5,0.3,0.9,0.6,1.2,1.1c0.3,0.4,0.5,0.9,0.7,1.4
		s0.5,1.1,0.8,2l6.7,16.4c0.5,1.3,0.8,2.2,0.8,2.7c0,0.6-0.2,1.1-0.7,1.6s-1.1,0.7-1.8,0.7c-0.4,0-0.8-0.1-1-0.2
		c-0.3-0.1-0.5-0.3-0.7-0.6c-0.2-0.2-0.4-0.6-0.6-1.1C36,399.6,35.8,399.2,35.6,398.8z M25.4,391.7H33l-3.8-10.5L25.4,391.7z"/>
	<path d="M51.9,390.8h-1.8v8.2c0,1.1-0.2,1.9-0.7,2.4s-1.1,0.8-1.9,0.8c-0.8,0-1.5-0.3-1.9-0.8c-0.5-0.5-0.7-1.3-0.7-2.3v-19.6
		c0-1.1,0.2-1.9,0.7-2.4s1.3-0.7,2.4-0.7h8.4c1.2,0,2.1,0,3,0.1c0.8,0.1,1.6,0.3,2.2,0.6c0.8,0.3,1.5,0.8,2.1,1.4
		c0.6,0.6,1.1,1.4,1.4,2.2c0.3,0.8,0.5,1.7,0.5,2.6c0,1.9-0.5,3.4-1.6,4.6c-1.1,1.1-2.7,1.9-4.9,2.4c0.9,0.5,1.8,1.2,2.6,2.2
		s1.6,2,2.2,3c0.7,1.1,1.2,2,1.5,2.9s0.5,1.5,0.5,1.8c0,0.3-0.1,0.7-0.3,1c-0.2,0.3-0.5,0.6-0.9,0.8c-0.4,0.2-0.8,0.3-1.3,0.3
		c-0.6,0-1.1-0.1-1.5-0.4c-0.4-0.3-0.7-0.6-1-1c-0.3-0.4-0.7-1-1.2-1.8l-2.1-3.4c-0.7-1.3-1.4-2.2-2-2.9s-1.2-1.1-1.8-1.4
		C53.5,390.9,52.8,390.8,51.9,390.8z M54.8,380h-4.8v7h4.6c1.2,0,2.3-0.1,3.1-0.3s1.5-0.6,1.9-1.1c0.4-0.5,0.7-1.2,0.7-2.1
		c0-0.7-0.2-1.3-0.5-1.9c-0.4-0.5-0.9-0.9-1.5-1.2C57.8,380.2,56.6,380,54.8,380z"/>
</g>
</svg>
